 <svg width="576" height="152" viewBox="0 0 576 152" fill="none" xmlns="http://www.w3.org/2000/svg">
<path d="M138.719 113.125C136.469 116.875 133.656 121 130.281 125.5C126.906 129.906 122.688 134.031 117.625 137.875C112.656 141.625 106.75 144.766 99.9062 147.297C93.0625 149.828 85.1406 151.094 76.1406 151.094C63.2969 151.094 52.0938 149.125 42.5312 145.188C33.0625 141.156 25.1875 135.812 18.9062 129.156C12.625 122.406 7.9375 114.719 4.84375 106.094C1.75 97.375 0.203125 88.3281 0.203125 78.9531C0.203125 72.6719 0.90625 66.3906 2.3125 60.1094C3.71875 53.8281 5.78125 47.8281 8.5 42.1094C11.2188 36.3906 14.6406 31.0469 18.7656 26.0781C22.9844 21.0156 27.8125 16.6562 33.25 13C38.6875 9.34375 44.8281 6.48438 51.6719 4.42188C58.5156 2.26562 66.0156 1.1875 74.1719 1.1875C79.6094 1.1875 84.5781 1.75 89.0781 2.875C93.5781 3.90625 97.5156 5.07812 100.891 6.39062C104.359 7.70312 107.219 8.92188 109.469 10.0469C111.812 11.0781 113.5 11.5938 114.531 11.5938C116.031 11.5938 117.203 11.3125 118.047 10.75C118.891 10.1875 119.547 9.4375 120.016 8.5C120.578 7.46875 121 6.29688 121.281 4.98438C121.656 3.67188 122.078 2.3125 122.547 0.90625H130.703L133.938 56.3125H125.5C123.906 49.5625 121.516 43.5156 118.328 38.1719C115.141 32.8281 111.438 28.3281 107.219 24.6719C103.094 21.0156 98.5938 18.2031 93.7188 16.2344C88.8438 14.2656 84.0156 13.2812 79.2344 13.2812C71.9219 13.2812 65.5938 15.0156 60.25 18.4844C54.9062 21.8594 50.5 26.5469 47.0312 32.5469C43.5625 38.4531 40.9844 45.3906 39.2969 53.3594C37.6094 61.3281 36.7656 69.8594 36.7656 78.9531C36.7656 88.0469 37.8906 96.2969 40.1406 103.703C42.3906 111.016 45.5312 117.25 49.5625 122.406C53.6875 127.562 58.5625 131.547 64.1875 134.359C69.9062 137.078 76.2344 138.438 83.1719 138.438C88.7969 138.438 94 137.5 98.7812 135.625C103.562 133.75 107.922 131.359 111.859 128.453C115.891 125.453 119.453 122.078 122.547 118.328C125.734 114.578 128.547 110.828 130.984 107.078L138.719 113.125ZM251.078 97.5156C251.078 104.734 249.953 111.578 247.703 118.047C245.547 124.516 242.359 130.234 238.141 135.203C234.016 140.078 228.953 143.969 222.953 146.875C217.047 149.781 210.344 151.234 202.844 151.234C195.062 151.234 188.078 149.828 181.891 147.016C175.703 144.203 170.453 140.453 166.141 135.766C161.922 130.984 158.641 125.547 156.297 119.453C154.047 113.359 152.922 107.031 152.922 100.469C152.922 93.7188 154.047 87.2031 156.297 80.9219C158.547 74.5469 161.781 68.9219 166 64.0469C170.219 59.1719 175.328 55.2812 181.328 52.375C187.328 49.4688 194.125 48.0156 201.719 48.0156C209.031 48.0156 215.734 49.3281 221.828 51.9531C227.922 54.4844 233.125 58 237.438 62.5C241.75 67 245.078 72.25 247.422 78.25C249.859 84.25 251.078 90.6719 251.078 97.5156ZM220.422 105.953C220.422 100.234 219.906 94.5625 218.875 88.9375C217.938 83.2188 216.484 78.1094 214.516 73.6094C212.547 69.1094 210.109 65.5 207.203 62.7812C204.391 59.9688 201.109 58.5625 197.359 58.5625C195.766 58.5625 194.125 59.125 192.438 60.25C190.844 61.2812 189.391 63.0625 188.078 65.5938C186.859 68.125 185.828 71.5 184.984 75.7188C184.234 79.9375 183.859 85.2344 183.859 91.6094C183.859 98.2656 184.516 104.547 185.828 110.453C187.234 116.359 189.062 121.562 191.312 126.062C193.562 130.469 196.094 133.984 198.906 136.609C201.812 139.234 204.766 140.547 207.766 140.547C211.891 140.547 215.031 137.922 217.188 132.672C219.344 127.328 220.422 118.422 220.422 105.953ZM351.766 112.141C350.734 117.016 349.141 121.797 346.984 126.484C344.922 131.172 342.156 135.344 338.688 139C335.312 142.656 331.234 145.609 326.453 147.859C321.766 150.109 316.328 151.234 310.141 151.234C303.578 151.234 297.625 150.016 292.281 147.578C286.938 145.047 282.344 141.625 278.5 137.312C274.75 133 271.844 127.938 269.781 122.125C267.719 116.219 266.688 109.938 266.688 103.281C266.688 94.8438 267.953 87.25 270.484 80.5C273.016 73.6562 276.344 67.8438 280.469 63.0625C284.688 58.2812 289.469 54.5781 294.812 51.9531C300.25 49.3281 305.875 48.0156 311.688 48.0156C318.531 48.0156 324.344 48.9062 329.125 50.6875C333.906 52.4688 337.797 54.6719 340.797 57.2969C343.797 59.8281 346 62.5938 347.406 65.5938C348.812 68.5938 349.516 71.3125 349.516 73.75C349.516 77.6875 348.438 80.875 346.281 83.3125C344.219 85.75 341.031 86.9688 336.719 86.9688C333.156 86.9688 330.438 86.2656 328.562 84.8594C326.688 83.4531 325.281 81.7188 324.344 79.6562C323.406 77.5 322.656 75.2031 322.094 72.7656C321.531 70.2344 320.734 67.9375 319.703 65.875C318.766 63.7188 317.359 61.9375 315.484 60.5312C313.609 59.125 310.844 58.4219 307.188 58.4219C302.031 58.4219 298 60.4844 295.094 64.6094C292.281 68.7344 290.875 74.7812 290.875 82.75C290.875 89.2188 291.672 95.2656 293.266 100.891C294.859 106.422 297.062 111.25 299.875 115.375C302.688 119.5 306.062 122.734 310 125.078C313.938 127.422 318.25 128.594 322.938 128.594C324.625 128.594 326.453 128.406 328.422 128.031C330.391 127.562 332.359 126.672 334.328 125.359C336.297 123.953 338.219 121.984 340.094 119.453C342.062 116.922 343.891 113.594 345.578 109.469L351.766 112.141ZM462.016 97.5156C462.016 104.734 460.891 111.578 458.641 118.047C456.484 124.516 453.297 130.234 449.078 135.203C444.953 140.078 439.891 143.969 433.891 146.875C427.984 149.781 421.281 151.234 413.781 151.234C406 151.234 399.016 149.828 392.828 147.016C386.641 144.203 381.391 140.453 377.078 135.766C372.859 130.984 369.578 125.547 367.234 119.453C364.984 113.359 363.859 107.031 363.859 100.469C363.859 93.7188 364.984 87.2031 367.234 80.9219C369.484 74.5469 372.719 68.9219 376.938 64.0469C381.156 59.1719 386.266 55.2812 392.266 52.375C398.266 49.4688 405.062 48.0156 412.656 48.0156C419.969 48.0156 426.672 49.3281 432.766 51.9531C438.859 54.4844 444.062 58 448.375 62.5C452.688 67 456.016 72.25 458.359 78.25C460.797 84.25 462.016 90.6719 462.016 97.5156ZM431.359 105.953C431.359 100.234 430.844 94.5625 429.812 88.9375C428.875 83.2188 427.422 78.1094 425.453 73.6094C423.484 69.1094 421.047 65.5 418.141 62.7812C415.328 59.9688 412.047 58.5625 408.297 58.5625C406.703 58.5625 405.062 59.125 403.375 60.25C401.781 61.2812 400.328 63.0625 399.016 65.5938C397.797 68.125 396.766 71.5 395.922 75.7188C395.172 79.9375 394.797 85.2344 394.797 91.6094C394.797 98.2656 395.453 104.547 396.766 110.453C398.172 116.359 400 121.562 402.25 126.062C404.5 130.469 407.031 133.984 409.844 136.609C412.75 139.234 415.703 140.547 418.703 140.547C422.828 140.547 425.969 137.922 428.125 132.672C430.281 127.328 431.359 118.422 431.359 105.953ZM575.781 133.938C574.844 135.062 573.344 136.516 571.281 138.297C569.219 140.078 566.781 141.859 563.969 143.641C561.25 145.328 558.203 146.781 554.828 148C551.547 149.312 548.172 149.969 544.703 149.969C542.453 149.969 540.344 149.547 538.375 148.703C536.406 147.953 534.672 146.922 533.172 145.609C531.766 144.203 530.641 142.656 529.797 140.969C528.953 139.188 528.531 137.312 528.531 135.344C526.188 137.312 523.844 139.188 521.5 140.969C519.25 142.75 516.906 144.344 514.469 145.75C512.031 147.062 509.453 148.094 506.734 148.844C504.109 149.594 501.297 149.969 498.297 149.969C491.078 149.969 485.5 147.766 481.562 143.359C477.719 138.953 475.797 132.812 475.797 124.938C475.797 119.594 477.625 114.766 481.281 110.453C485.031 106.141 489.578 102.297 494.922 98.9219C500.359 95.5469 506.125 92.5938 512.219 90.0625C518.312 87.5312 523.75 85.4219 528.531 83.7344V79.7969C528.531 76.5156 528.25 73.5156 527.688 70.7969C527.219 67.9844 526.469 65.5938 525.438 63.625C524.406 61.5625 523.047 59.9688 521.359 58.8438C519.766 57.7188 517.844 57.1562 515.594 57.1562C511.938 57.1562 509.312 58.2344 507.719 60.3906C506.125 62.4531 505.328 66.4844 505.328 72.4844C505.328 74.0781 505.094 75.7656 504.625 77.5469C504.156 79.2344 503.359 80.7812 502.234 82.1875C501.203 83.5938 499.797 84.7656 498.016 85.7031C496.234 86.6406 493.984 87.1094 491.266 87.1094C487.328 87.1094 484.141 85.9375 481.703 83.5938C479.359 81.25 478.188 78.0156 478.188 73.8906C478.188 69.7656 479.453 66.1094 481.984 62.9219C484.609 59.6406 487.891 56.9219 491.828 54.7656C495.766 52.5156 500.031 50.8281 504.625 49.7031C509.312 48.5781 513.719 48.0156 517.844 48.0156C525.344 48.0156 531.719 48.625 536.969 49.8438C542.219 50.9688 546.484 52.8906 549.766 55.6094C553.047 58.2344 555.391 61.6562 556.797 65.875C558.297 70.0938 559.047 75.2031 559.047 81.2031V110.031C559.047 112.75 559.047 115.562 559.047 118.469C559.141 121.375 559.328 123.766 559.609 125.641C559.797 126.953 560.219 128.172 560.875 129.297C561.531 130.328 562.656 130.844 564.25 130.844C565 130.844 565.938 130.562 567.062 130C568.188 129.438 569.312 128.781 570.438 128.031C571.562 127.281 572.594 126.531 573.531 125.781C574.562 124.938 575.312 124.234 575.781 123.672V133.938ZM528.531 93.8594C524.031 95.8281 520.281 97.8906 517.281 100.047C514.375 102.109 512.031 104.219 510.25 106.375C508.562 108.531 507.344 110.781 506.594 113.125C505.938 115.375 505.609 117.672 505.609 120.016C505.609 123.016 506.359 125.641 507.859 127.891C509.359 130.141 511.516 131.266 514.328 131.266C516.672 131.266 519.062 130.422 521.5 128.734C524.031 127.047 526.375 125.031 528.531 122.688V93.8594Z" fill="white"/>
</svg>
