<svg width="908" height="508" viewBox="0 0 908 508" fill="none" xmlns="http://www.w3.org/2000/svg">
<g filter="url(#filter0_d_36_11)">
<path d="M244.133 308.57C87.9912 300.665 17.784 210.061 15.6892 160.109C14.1358 123.066 33.8786 96.0403 60.8702 54.2432C145.332 -76.5482 147.859 63.4926 113.703 126.829C124.824 71.2853 133.898 -10.8202 81.2256 105.11C15.3856 250.023 181.215 272.541 237.264 267.326C352.614 256.592 424.337 191.606 532.395 204.607C632.872 216.697 623.011 457.701 745.906 457.701C829 457.701 787 419.638 787 419.638C877 419.638 895.014 479.776 907.491 490.132C900.975 491.783 883.155 490.794 864 473.638C813 427.96 841.785 509.232 743.417 493.722C578 467.638 640 308.57 566.24 254.923C470.517 185.302 439.311 318.451 244.133 308.57Z" fill="white"/>
<path d="M244.133 308.57C87.9912 300.665 17.784 210.061 15.6892 160.109C14.1358 123.066 33.8786 96.0403 60.8702 54.2432C145.332 -76.5482 147.859 63.4926 113.703 126.829C124.824 71.2853 133.898 -10.8202 81.2256 105.11C15.3856 250.023 181.215 272.541 237.264 267.326C352.614 256.592 424.337 191.606 532.395 204.607C632.872 216.697 623.011 457.701 745.906 457.701C829 457.701 787 419.638 787 419.638C877 419.638 895.014 479.776 907.491 490.132C900.975 491.783 883.155 490.794 864 473.638C813 427.96 841.785 509.232 743.417 493.722C578 467.638 640 308.57 566.24 254.923C470.517 185.302 439.311 318.451 244.133 308.57Z" stroke="black"/>
</g>
<defs>
<filter id="filter0_d_36_11" x="0.603516" y="0.271301" width="906.887" height="507.45" filterUnits="userSpaceOnUse" color-interpolation-filters="sRGB">
<feFlood flood-opacity="0" result="BackgroundImageFix"/>
<feColorMatrix in="SourceAlpha" type="matrix" values="0 0 0 0 0 0 0 0 0 0 0 0 0 0 0 0 0 0 127 0" result="hardAlpha"/>
<feOffset dx="-15" dy="12"/>
<feComposite in2="hardAlpha" operator="out"/>
<feColorMatrix type="matrix" values="0 0 0 0 0.760784 0 0 0 0 0 0 0 0 0 0 0 0 0 1 0"/>
<feBlend mode="normal" in2="BackgroundImageFix" result="effect1_dropShadow_36_11"/>
<feBlend mode="normal" in="SourceGraphic" in2="effect1_dropShadow_36_11" result="shape"/>
</filter>
</defs>
</svg>
